<?xml version="1.0" encoding="utf-8"?>
<svg xmlns="http://www.w3.org/2000/svg" viewBox="0 0 500 500" xmlns:bx="https://boxy-svg.com" width="500px" height="500px">
  <defs>
    <linearGradient gradientUnits="userSpaceOnUse" x1="955.823" y1="76.728" x2="955.823" y2="225.698" id="gradient-4" gradientTransform="matrix(0.215766, 0, 0, 0.244469, 163.948655, 104.849325)">
      <stop offset="0" style="stop-color: rgb(0% 43.922% 76.863%)"/>
      <stop offset="1" style="stop-color: rgb(0% 27.887% 48.344%)"/>
    </linearGradient>
    <bx:export>
      <bx:file format="png" animation="0" dpi="134" background="#000"/>
      <bx:file format="png" path="Untitled 2.png"/>
      <bx:file format="jpeg"/>
      <bx:file format="gif"/>
      <bx:file format="svg"/>
      <bx:file format="html"/>
      <bx:file format="pdf">
        <bx:page/>
      </bx:file>
      <bx:file format="png" href="#object-1" path="Untitled 3.png"/>
      <bx:file format="png" href="#object-2" path="Untitled 4.png"/>
      <bx:file format="png" href="#object-5" path="Untitled 7.png"/>
      <bx:file format="png" href="#object-25" path="Untitled 27.png"/>
      <bx:file format="png" href="#object-26" path="Untitled 28.png"/>
      <bx:file format="png" href="#object-27" path="Untitled 29.png"/>
    </bx:export>
    <radialGradient gradientUnits="userSpaceOnUse" cx="237.266" cy="341.506" r="196.448" id="gradient-3" gradientTransform="matrix(0.5982, 0, 0, 0.579516, 103.337409, 101.646542)">
      <stop offset="0" style="stop-color: rgb(1.5686% 73.333% 49.02%)"/>
      <stop offset="1" style="stop-color: rgb(0% 43.694% 25.232%)"/>
    </radialGradient>
    <radialGradient gradientUnits="userSpaceOnUse" cx="223.355" cy="202.912" r="175.907" id="gradient-5" gradientTransform="matrix(0.5982, 0, 0, 0.601371, 103.337409, 96.670814)">
      <stop offset="0" style="stop-color: rgb(0% 39.608% 69.412%)"/>
      <stop offset="1" style="stop-color: rgb(0% 25.298% 44.727%)"/>
    </radialGradient>
    <linearGradient gradientUnits="userSpaceOnUse" x1="237.266" y1="233.773" x2="237.266" y2="449.239" id="gradient-6" gradientTransform="matrix(0.5982, 0, 0, 0.579516, 103.337409, 101.646542)">
      <stop offset="0" style="stop-color: rgb(2.7451% 100% 68.235%)"/>
      <stop offset="1" style="stop-color: rgb(0% 57.997% 35.472%)"/>
    </linearGradient>
    <linearGradient gradientUnits="userSpaceOnUse" x1="62.881" y1="33.488" x2="62.881" y2="98.64" id="gradient-7">
      <stop offset="0" style="stop-color: rgb(1.5686% 100% 66.667%)"/>
      <stop offset="1" style="stop-color: rgb(0% 57.985% 34.381%)"/>
    </linearGradient>
    <radialGradient gradientUnits="userSpaceOnUse" cx="223.355" cy="202.912" r="175.907" id="gradient-8" gradientTransform="matrix(0.5982, 0, 0, 0.601371, 103.337409, 96.670814)">
      <stop offset="0" style="stop-color: rgb(0% 56.863% 100%)"/>
      <stop offset="1" style="stop-color: rgb(0% 35.687% 59.403%)"/>
    </radialGradient>
    <radialGradient gradientUnits="userSpaceOnUse" cx="396.641" cy="398.027" r="59.103" id="gradient-2" gradientTransform="matrix(0.5982, 0, 0, 0.601371, 98.551807, 87.650251)">
      <stop offset="0" style="stop-color: rgb(0% 56.471% 100%)"/>
      <stop offset="1" style="stop-color: rgb(0% 35.522% 59.317%)"/>
    </radialGradient>
    <linearGradient gradientUnits="userSpaceOnUse" x1="685.542" y1="-257.816" x2="685.542" y2="-174.071" id="gradient-0">
      <stop offset="0" style="stop-color: rgb(0% 57.255% 100%)"/>
      <stop offset="1" style="stop-color: rgb(0% 35.854% 59.488%)"/>
    </linearGradient>
  </defs>
  <path d="M 131.721 129.898 C 201.171 129.898 270.623 129.898 342.177 129.898 C 341.771 130.953 341.455 131.666 340.862 132.572 C 340.633 132.927 340.633 132.927 340.399 133.284 C 340.235 133.535 340.07 133.787 339.9 134.045 C 339.546 134.59 339.193 135.132 338.838 135.678 C 338.566 136.096 338.566 136.096 338.289 136.525 C 337.432 137.848 336.588 139.183 335.744 140.518 C 335.409 141.048 335.075 141.576 334.737 142.108 C 334.233 142.905 333.726 143.703 333.223 144.501 C 331.255 147.62 329.255 150.706 327.184 153.753 C 325.885 155.665 324.621 157.6 323.376 159.549 C 323.162 159.883 322.949 160.217 322.736 160.547 C 322.308 161.217 321.878 161.888 321.45 162.558 C 318.078 167.829 314.673 173.077 311.258 178.318 C 309.137 181.575 307.026 184.838 304.931 188.113 C 302.658 191.663 300.342 195.184 298.011 198.694 C 295.969 201.764 293.949 204.847 291.938 207.937 C 291.765 208.201 291.592 208.467 291.415 208.74 C 288.612 213.048 285.844 217.378 283.093 221.72 C 280.598 225.659 278.074 229.574 275.526 233.477 C 272.907 237.485 270.316 241.51 267.753 245.556 C 267.448 246.038 267.144 246.518 266.836 246.999 C 266.686 247.237 266.536 247.475 266.38 247.72 C 266.154 248.076 266.154 248.076 265.923 248.44 C 265.774 248.676 265.622 248.914 265.467 249.159 C 265 249.898 264.534 250.635 264.066 251.371 C 263.898 251.633 263.733 251.894 263.562 252.164 C 262.55 253.761 261.533 255.355 260.515 256.949 C 260.196 257.452 259.873 257.956 259.555 258.459 C 259.115 259.152 258.673 259.842 258.229 260.535 C 258.099 260.741 257.967 260.95 257.833 261.164 C 257.524 261.642 257.195 262.109 256.864 262.571 C 256.68 262.571 256.497 262.571 256.309 262.571 C 255.796 261.875 255.315 261.176 254.84 260.453 C 254.536 260 254.234 259.549 253.933 259.099 C 253.778 258.864 253.62 258.632 253.459 258.389 C 252.721 257.291 251.924 252.703 251.165 251.619 C 250.94 251.298 250.98 254.801 250.752 254.474 C 250.448 254.04 248.469 248.864 248.165 248.429 C 247.411 247.351 248.34 251.014 247.588 249.935 C 247.44 249.722 245.751 244.766 245.596 244.548 C 244.849 243.475 245.645 247.143 244.9 246.07 C 242.727 242.938 242.01 233.395 240.931 238.261 C 239.982 239.181 239.056 228.147 238.299 229.24 C 238.028 229.627 236.731 232.666 236.054 234.479 C 235.967 234.713 234.883 239.006 234.735 239.216 C 233.963 240.319 233.054 243.743 232.273 244.838 C 231.941 245.302 231.612 245.768 231.281 246.233 C 231.115 246.466 231.433 243.885 231.261 244.126 C 230.449 245.269 229.027 248.123 228.214 249.267 C 227.891 249.721 227.697 251.275 227.374 251.729 C 227.213 251.955 227.053 252.181 226.89 252.412 C 226.404 253.095 226.755 250.771 226.271 251.453 C 226.111 251.679 225.114 254.908 224.951 255.14 C 224.629 255.594 224.305 256.047 223.981 256.501 C 223.165 257.648 223.991 254.271 223.176 255.42 C 221.224 258.171 217.623 265.435 215.642 268.163 C 215.26 268.691 214.875 269.221 214.494 269.751 C 213.268 269.278 212.075 265.229 211.22 264.251 C 211.062 264.072 211.359 266.97 211.195 266.787 C 209.835 265.238 209.05 259.012 207.799 257.368 C 206.205 259.157 204.16 265.592 202.683 267.485 C 201.971 268.393 201.241 269.287 200.509 270.18 C 199.582 271.314 200.775 267.588 199.872 268.743 C 198.774 270.139 195.533 276.372 194.398 277.736 C 193.565 278.742 195.104 274.318 194.299 275.35 C 192.872 277.171 191.134 279.064 189.647 280.835 C 187.953 282.856 186.338 286.768 184.712 288.849 C 183.282 290.669 178.749 295.668 178.731 297.565 C 178.7 300.639 174.271 302.267 172.41 304.643 C 171.597 305.669 168.26 306.504 167.409 307.495 C 167.409 306.322 168.738 305.552 169.363 304.62 C 169.488 304.429 171.446 302.585 171.575 302.387 C 171.991 301.755 172.206 301.446 172.623 300.815 C 172.915 300.373 173.307 299.931 173.597 299.488 C 174.198 298.578 175.254 296.976 175.855 296.068 C 177.027 294.291 177.63 292.989 178.794 291.206 C 179.389 290.293 179.63 289.807 180.227 288.893 C 180.343 288.713 180.817 288.431 180.935 288.246 C 181.171 287.887 181.354 287.531 181.589 287.172 C 181.823 286.812 184.806 282.348 185.041 281.987 C 188.793 276.247 190.192 275.582 193.336 269.68 C 193.93 268.563 195.181 268.329 195.88 267.281 C 196.356 266.563 196.538 265.099 197.013 264.38 C 197.367 263.845 197.793 264.022 198.149 263.489 C 198.609 262.805 198.788 261.757 199.25 261.074 C 201.902 257.163 204.993 253.611 207.575 249.648 C 207.853 249.219 208.132 248.791 208.411 248.364 C 211.314 243.909 214.215 239.452 217.112 234.994 C 217.8 233.939 218.487 232.883 219.174 231.825 C 219.344 231.563 219.514 231.303 219.689 231.033 C 221.787 227.807 223.888 224.583 225.994 221.363 C 230.799 214.014 235.596 206.661 240.339 199.27 C 242.648 195.671 244.975 192.083 247.305 188.499 C 247.479 188.232 247.652 187.965 247.833 187.69 C 248.33 186.921 248.83 186.154 249.329 185.385 C 249.476 185.163 249.622 184.935 249.774 184.704 C 250.834 183.08 251.916 181.477 253.002 179.867 C 221.291 179.773 189.58 179.677 156.911 179.58 C 154.513 174.935 152.132 170.293 149.801 165.609 C 148.86 163.727 147.882 161.863 146.896 160.005 C 143.728 154.014 140.687 147.947 137.649 141.884 C 137.232 141.051 136.813 140.221 136.392 139.388 C 136.248 139.101 136.103 138.813 135.955 138.519 C 135.684 137.982 135.412 137.446 135.14 136.911 C 133.97 134.588 132.85 132.246 131.721 129.898 Z" style="paint-order: stroke; stroke: url(&quot;#gradient-5&quot;); fill: url(&quot;#gradient-8&quot;); stroke-opacity: 0.02;" id="object-1"/>
  <path d="M 243.288 250.534 C 245.51 251.941 247.711 258.364 247.612 256.039 C 247.504 253.525 251.512 262.578 251.377 261.663 C 250.976 258.975 252.429 263.055 252.754 263.441 C 253.64 264.492 256.119 268.182 255.669 266.756 C 254.733 263.776 257.242 268.509 257.948 269.327 C 259.466 271.092 265.538 278.03 264.306 275.185 C 260.97 267.474 268.529 278.823 269.854 280.414 C 270.918 281.689 287.719 298.449 285.602 294.518 C 277.033 278.601 317.464 321.953 319.348 324.104 C 317.399 324.104 364.34 362.776 362.746 361.976 C 362.192 361.7 316.689 357.609 291.059 313.604 C 282.947 299.675 267.416 297.648 267.143 297.512 C 266.68 297.279 269.442 316.555 268.973 316.319 C 267.837 315.751 258.29 285.677 257.15 285.112 C 252.727 282.924 246.893 271.381 243.651 267.818 C 243.763 271.355 242.419 280.997 241.737 282.356 C 241.615 282.594 241.497 282.833 241.372 283.078 C 241.12 283.581 240.865 284.084 240.613 284.588 C 240.235 285.341 239.855 286.093 239.472 286.848 C 238.746 288.29 238.033 289.736 237.319 291.181 C 237.104 291.611 236.884 292.043 236.659 292.485 C 236.466 292.881 236.272 293.275 236.072 293.684 C 235.815 294.201 235.815 294.201 235.553 294.728 C 235.118 296.129 235.404 297.079 236.338 298.335 C 236.574 298.581 236.81 298.828 237.052 299.08 C 237.318 299.362 237.586 299.643 237.86 299.934 C 238.152 300.232 238.441 300.531 238.739 300.838 C 239.039 301.154 239.343 301.469 239.651 301.792 C 242.507 304.768 245.424 307.71 248.362 310.643 C 250.044 312.326 251.713 314.013 253.385 315.7 C 254.855 317.186 256.336 318.668 257.83 320.14 C 258.145 320.451 258.455 320.759 258.774 321.078 C 259.378 321.672 259.979 322.265 260.589 322.857 C 260.856 323.125 261.006 323.456 261.284 323.732 C 261.52 323.966 260.696 323.393 260.943 323.636 C 261.453 324.278 261.482 323.41 260.952 323.674 C 260.969 323.698 256.692 322.21 254.108 320.694 C 252.153 319.547 250.275 318.36 248.423 317.123 C 246.169 315.614 243.842 314.193 241.458 312.792 C 239.617 311.689 237.822 310.556 236.025 309.417 C 230.659 305.951 230.659 305.951 224.916 302.838 C 218.465 306.133 212.06 309.472 205.68 312.842 C 196.379 317.756 186.957 322.538 177.426 327.215 C 176.008 327.911 174.593 328.611 173.178 329.308 C 167.756 331.977 162.267 334.536 156.655 336.99 C 154.322 338.015 152.026 339.075 149.723 340.126 C 145.423 342.088 141.114 344.039 136.793 345.976 C 135.913 346.371 135.036 346.767 134.153 347.161 C 133.349 347.522 133.349 347.522 132.529 347.891 C 132.054 348.102 131.582 348.314 131.094 348.533 C 130.003 349.005 128.903 349.434 127.755 349.832 C 129.285 348.534 130.817 347.234 132.354 345.939 C 134.718 343.939 137.071 341.941 139.354 339.893 C 141.474 337.994 143.668 336.147 145.879 334.303 C 148.418 332.178 150.925 330.031 153.418 327.877 C 154.132 327.26 162.377 315.952 163.095 315.336 C 165.286 313.46 159.935 322.277 162.066 320.366 C 164.217 318.439 166.451 316.568 168.692 314.7 C 170.721 313 179.025 301.597 180.971 299.851 C 182.652 298.362 176.917 300.291 178.447 299.515 C 178.607 299.433 179.746 298.897 180.064 298.759 C 180.144 298.723 180.228 298.687 180.319 298.648 C 182.897 297.545 186.751 293.174 189.871 290.381 C 190.307 289.991 193.5 284.792 194.023 283.586 C 194.768 281.869 194.488 283.499 194.421 284.29 C 194.145 287.552 196.536 283.54 199.216 278.538 C 201.782 273.747 204.612 268.047 205.615 266.961 C 207.966 264.416 200.558 287.178 203.139 284.889 C 205.24 283.026 210.249 273.519 212.393 271.685 C 213.84 270.447 212.373 276.862 213.782 275.601 C 215.828 273.774 227.134 254.67 226.003 257.157 C 225.383 258.522 224.305 265.839 226.204 264.141 C 226.808 263.606 229.63 249.776 229.063 256.831 C 228.972 257.968 230.094 254.087 230.618 253.015 C 231.013 252.203 232.192 245.775 232.033 250.438 C 231.987 251.784 233.254 248.209 233.141 247.76 C 233.077 247.5 233.378 241.435 233.667 245.16 C 233.837 247.355 236.377 235.124 236.365 237.034 C 236.342 240.733 237.545 232.137 238.19 233.803 C 238.484 234.563 238.986 240.829 239.339 238.657 C 239.779 235.945 241.482 246.791 241.519 244.169 C 241.579 239.829 243.421 249.448 243.288 250.534 Z" style="stroke: url(&quot;#gradient-3&quot;); fill: url(&quot;#gradient-6&quot;); stroke-width: 0px;" id="object-2"/>
  <path d="M 300.468 293.817 C 313.588 293.817 329.213 293.817 342.733 293.817 C 345.046 299.262 347.361 304.705 349.746 310.314 C 351.233 313.753 352.723 317.189 354.22 320.624 C 354.811 321.981 355.4 323.338 355.989 324.696 C 358.369 330.191 360.759 335.679 363.162 341.161 C 363.646 342.267 364.13 343.371 364.615 344.476 C 365.945 347.513 367.274 350.547 368.634 353.57 C 368.82 353.989 369.009 354.408 369.197 354.84 C 369.539 355.574 369.867 356.31 370.202 357.043 C 370.55 357.818 370.868 358.609 371.178 359.402 C 371.05 359.668 370.919 359.934 370.789 360.207 C 370.526 359.957 370.188 360.118 369.919 359.861 C 367.758 357.811 365.563 356.333 363.281 354.425 C 361.284 352.741 355.967 347.921 355.254 347.295 C 352.871 345.197 350.277 343.57 347.956 341.4 C 347.156 340.65 346.034 339.75 345.219 339.018 C 343.701 337.651 342.36 336.339 340.865 334.944 C 340.061 334.202 339.249 333.467 338.433 332.737 C 336.41 330.914 334.677 329.431 332.709 327.542 C 332.229 327.085 331.748 326.671 331.269 326.214 C 327.348 322.464 322.039 318.067 318.265 314.159 C 317.392 313.255 317.227 312.54 316.353 311.641 C 315.786 311.055 315.482 310.779 314.915 310.194 C 314.531 309.799 314.242 309.418 313.849 309.016 C 312.346 307.458 312.625 307.794 311.236 306.127 C 310.56 305.323 310.444 305.103 309.703 304.362 C 308.405 303.046 306.02 300.513 304.837 299.083 C 304.246 298.365 303.454 297.306 302.778 296.671 C 302.273 296.109 300.468 294.623 300.468 293.817 Z" style="paint-order: stroke markers; stroke-width: 8px; stroke: rgb(0, 80, 142); fill: url(&quot;#gradient-2&quot;); stroke-opacity: 0;" id="object-5"/>


</svg>